<svg xmlns="http://www.w3.org/2000/svg" viewBox="0 0 367 393" width="367" height="393" role="img" aria-label="Guildlight">
  <defs>
    <linearGradient id="gold" x1="0%" y1="0%" x2="100%" y2="100%">
      <stop offset="0%"  stop-color="#E9D5A1"/>
      <stop offset="28%" stop-color="#C9A14F"/>
      <stop offset="55%" stop-color="#B68B5E"/>
      <stop offset="78%" stop-color="#9A7338"/>
      <stop offset="100%" stop-color="#D9BE7E"/>
    </linearGradient>
  </defs>
  <path d="M 157.17 384.83 C 156.75 384.42 157.04 384.00 157.75 384.00 C 158.20 384.00 158.68 383.79 158.93 383.50 C 159.25 383.13 159.67 383.00 160.55 383.00 C 161.48 383.00 161.79 382.89 162.00 382.50 C 162.25 382.04 162.52 382.00 165.50 382.00 C 168.48 382.00 168.75 381.96 169.00 381.50 C 169.23 381.07 169.52 381.00 171.00 381.00 C 172.48 381.00 172.77 380.93 173.00 380.50 C 173.21 380.10 173.52 380.00 174.50 380.00 C 175.48 380.00 175.79 379.90 176.00 379.50 C 176.17 379.17 176.52 379.00 177.00 379.00 C 177.48 379.00 177.83 378.83 178.00 378.50 C 178.21 378.10 178.52 378.00 179.50 378.00 C 180.48 378.00 180.79 377.90 181.00 377.50 C 181.21 377.10 181.52 377.00 182.50 377.00 C 183.48 377.00 183.79 376.90 184.00 376.50 C 184.17 376.17 184.52 376.00 185.00 376.00 C 185.48 376.00 185.83 375.83 186.00 375.50 C 186.21 375.10 186.52 375.00 187.50 375.00 C 188.48 375.00 188.79 374.90 189.00 374.50 C 189.17 374.17 189.52 374.00 190.00 374.00 C 190.48 374.00 190.83 373.83 191.00 373.50 C 191.17 373.17 191.52 373.00 192.00 373.00 C 192.48 373.00 192.83 372.83 193.00 372.50 C 193.21 372.10 193.52 372.00 194.50 372.00 C 195.48 372.00 195.79 371.90 196.00 371.50 C 196.17 371.17 196.52 371.00 197.00 371.00 C 197.48 371.00 197.83 370.83 198.00 370.50 C 198.17 370.17 198.52 370.00 199.00 370.00 C 199.48 370.00 199.83 369.83 200.00 369.50 C 200.17 369.17 200.52 369.00 201.00 369.00 C 201.48 369.00 201.83 368.83 202.00 368.50 C 202.21 368.10 202.52 368.00 203.50 368.00 C 204.48 368.00 204.79 367.90 205.00 367.50 C 205.17 367.19 205.53 367.00 205.95 367.00 C 206.42 367.00 206.89 366.70 207.50 366.00 C 208.11 365.30 208.58 365.00 209.05 365.00 C 209.47 365.00 209.83 364.81 210.00 364.50 C 210.17 364.17 210.52 364.00 211.00 364.00 C 211.48 364.00 211.83 363.83 212.00 363.50 C 212.17 363.17 212.52 363.00 213.00 363.00 C 213.48 363.00 213.83 362.83 214.00 362.50 C 214.17 362.19 214.53 362.00 214.95 362.00 C 215.42 362.00 215.89 361.70 216.50 361.00 C 217.11 360.30 217.58 360.00 218.05 360.00 C 218.47 360.00 218.83 359.81 219.00 359.50 C 219.17 359.17 219.52 359.00 220.00 359.00 C 220.48 359.00 220.83 358.83 221.00 358.50 C 221.17 358.19 221.53 358.00 221.95 358.00 C 222.42 358.00 222.89 357.70 223.50 357.00 C 224.11 356.30 224.58 356.00 225.05 356.00 C 225.47 356.00 225.83 355.81 226.00 355.50 C 226.16 355.20 226.52 355.00 226.91 355.00 C 227.37 355.00 227.97 354.57 229.00 353.50 C 229.91 352.55 230.65 352.00 231.00 352.00 C 231.35 352.00 232.09 351.45 233.00 350.50 C 233.96 349.50 234.64 349.00 235.04 349.00 C 235.41 349.00 235.95 348.63 236.50 348.00 C 237.04 347.38 237.59 347.00 237.95 347.00 C 238.36 347.00 239.29 346.23 241.00 344.50 C 242.58 342.90 243.66 342.00 243.99 342.00 C 244.34 342.00 245.86 340.65 248.50 338.00 C 251.07 335.42 252.66 334.00 252.99 334.00 C 253.70 334.00 264.00 323.70 264.00 322.99 C 264.00 322.66 265.09 321.39 267.00 319.50 C 269.00 317.52 270.00 316.35 270.00 315.99 C 270.00 315.65 270.57 314.89 271.50 314.00 C 272.50 313.04 273.00 312.36 273.00 311.96 C 273.00 311.59 273.37 311.05 274.00 310.50 C 274.66 309.92 275.00 309.41 275.00 309.00 C 275.00 308.59 275.34 308.08 276.00 307.50 C 276.66 306.92 277.00 306.41 277.00 306.00 C 277.00 305.59 277.34 305.08 278.00 304.50 C 278.71 303.88 279.00 303.43 279.00 302.93 C 279.00 302.52 279.17 302.17 279.40 302.08 C 280.00 301.85 281.00 300.78 281.00 300.36 C 281.00 299.52 279.34 300.51 278.92 301.60 C 278.83 301.82 278.48 302.00 278.12 302.00 C 277.62 302.00 276.87 302.61 275.00 304.50 C 273.38 306.15 272.35 307.00 271.99 307.00 C 271.65 307.00 270.90 307.57 270.00 308.50 C 269.09 309.45 268.35 310.00 268.00 310.00 C 267.65 310.00 266.91 310.55 266.00 311.50 C 265.04 312.50 264.36 313.00 263.96 313.00 C 263.59 313.00 263.05 313.37 262.50 314.00 C 261.95 314.62 261.41 315.00 261.04 315.00 C 260.64 315.00 259.84 315.64 258.50 317.00 C 257.16 318.36 256.36 319.00 255.96 319.00 C 255.59 319.00 255.05 319.38 254.50 320.00 C 253.95 320.63 253.41 321.00 253.04 321.00 C 252.64 321.00 251.96 321.50 251.00 322.50 C 250.04 323.50 249.36 324.00 248.96 324.00 C 248.59 324.00 248.05 324.37 247.50 325.00 C 246.92 325.66 246.41 326.00 246.00 326.00 C 245.59 326.00 245.08 326.34 244.50 327.00 C 243.92 327.66 243.41 328.00 243.00 328.00 C 242.59 328.00 242.08 328.34 241.50 329.00 C 240.89 329.70 240.42 330.00 239.95 330.00 C 239.53 330.00 239.17 330.19 239.00 330.50 C 238.83 330.83 238.48 331.00 238.00 331.00 C 237.52 331.00 237.17 331.17 237.00 331.50 C 236.83 331.83 236.48 332.00 236.00 332.00 C 235.52 332.00 235.17 332.17 235.00 332.50 C 234.83 332.83 234.48 333.00 234.00 333.00 C 233.52 333.00 233.17 333.17 233.00 333.50 C 232.83 333.81 232.47 334.00 232.05 334.00 C 231.58 334.00 231.11 334.30 230.50 335.00 C 229.73 335.88 229.50 336.00 228.50 336.00 C 227.50 336.00 227.27 336.12 226.50 337.00 C 225.89 337.70 225.42 338.00 224.95 338.00 C 224.53 338.00 224.17 338.19 224.00 338.50 C 223.79 338.90 223.48 339.00 222.50 339.00 C 221.52 339.00 221.21 339.10 221.00 339.50 C 220.83 339.83 220.48 340.00 220.00 340.00 C 219.52 340.00 219.17 340.17 219.00 340.50 C 218.83 340.83 218.48 341.00 218.00 341.00 C 217.52 341.00 217.17 341.17 217.00 341.50 C 216.79 341.90 216.48 342.00 215.50 342.00 C 214.52 342.00 214.21 342.10 214.00 342.50 C 213.83 342.83 213.48 343.00 213.00 343.00 C 212.52 343.00 212.17 343.17 212.00 343.50 C 211.83 343.83 211.48 344.00 211.00 344.00 C 210.52 344.00 210.17 344.17 210.00 344.50 C 209.83 344.83 209.48 345.00 209.00 345.00 C 208.52 345.00 208.17 345.17 208.00 345.50 C 207.79 345.90 207.48 346.00 206.50 346.00 C 205.52 346.00 205.21 346.10 205.00 346.50 C 204.77 346.93 204.48 347.00 203.00 347.00 C 201.52 347.00 201.23 347.07 201.00 347.50 C 200.79 347.90 200.48 348.00 199.50 348.00 C 198.52 348.00 198.21 348.10 198.00 348.50 C 197.79 348.90 197.48 349.00 196.50 349.00 C 195.52 349.00 195.21 349.10 195.00 349.50 C 194.77 349.93 194.48 350.00 193.00 350.00 C 191.52 350.00 191.23 350.07 191.00 350.50 C 190.76 350.94 190.48 351.00 188.50 351.00 C 186.52 351.00 186.24 351.06 186.00 351.50 C 185.76 351.94 185.48 352.00 183.50 352.00 C 181.52 352.00 181.24 352.06 181.00 352.50 C 180.75 352.96 180.48 353.00 177.50 353.00 C 174.52 353.00 174.25 353.04 174.00 353.50 C 173.76 353.95 173.48 354.00 171.00 354.00 C 168.52 354.00 168.24 354.05 168.00 354.50 C 167.74 354.99 167.48 355.00 157.00 355.00 C 146.52 355.00 146.26 355.01 146.00 355.50 C 145.83 355.83 145.48 356.00 145.00 356.00 C 144.52 356.00 144.17 355.83 144.00 355.50 C 143.83 355.17 143.48 355.00 143.00 355.00 C 142.52 355.00 142.17 355.17 142.00 355.50 C 141.83 355.83 141.48 356.00 141.00 356.00 C 140.52 356.00 140.17 355.83 140.00 355.50 C 139.75 355.03 139.48 355.00 135.00 355.00 C 130.52 355.00 130.25 354.97 130.00 354.50 C 129.75 354.04 129.48 354.00 126.50 354.00 C 123.52 354.00 123.25 353.96 123.00 353.50 C 122.76 353.06 122.48 353.00 120.50 353.00 C 118.52 353.00 118.24 352.94 118.00 352.50 C 117.76 352.06 117.48 352.00 115.50 352.00 C 113.52 352.00 113.24 351.94 113.00 351.50 C 112.79 351.10 112.48 351.00 111.50 351.00 C 110.52 351.00 110.21 350.90 110.00 350.50 C 109.77 350.07 109.48 350.00 108.00 350.00 C 106.52 350.00 106.23 349.93 106.00 349.50 C 105.79 349.10 105.48 349.00 104.50 349.00 C 103.52 349.00 103.21 348.90 103.00 348.50 C 102.83 348.17 102.48 348.00 102.00 348.00 C 101.52 348.00 101.17 347.83 101.00 347.50 C 100.77 347.07 100.48 347.00 99.00 347.00 C 97.52 347.00 97.23 346.93 97.00 346.50 C 96.83 346.17 96.48 346.00 96.00 346.00 C 95.52 346.00 95.17 345.83 95.00 345.50 C 94.83 345.17 94.48 345.00 94.00 345.00 C 93.52 345.00 93.17 344.83 93.00 344.50 C 92.83 344.17 92.48 344.00 92.00 344.00 C 91.52 344.00 91.17 343.83 91.00 343.50 C 90.83 343.17 90.48 343.00 90.00 343.00 C 89.52 343.00 89.17 342.83 89.00 342.50 C 88.83 342.17 88.48 342.00 88.00 342.00 C 87.52 342.00 87.17 341.83 87.00 341.50 C 86.83 341.17 86.48 341.00 86.00 341.00 C 85.52 341.00 85.17 340.83 85.00 340.50 C 84.79 340.11 84.48 340.00 83.55 340.00 C 82.49 340.00 82.29 339.89 81.50 339.00 C 80.89 338.30 80.42 338.00 79.95 338.00 C 79.53 338.00 79.17 337.81 79.00 337.50 C 78.83 337.17 78.48 337.00 78.00 337.00 C 77.52 337.00 77.17 336.83 77.00 336.50 C 76.84 336.20 76.48 336.00 76.11 336.00 C 75.67 336.00 74.97 335.48 73.73 334.25 L 71.98 332.49 L 72.05 330.81 L 72.12 329.12 L 73.92 329.05 C 75.52 328.99 75.75 329.04 75.99 329.49 C 76.23 329.93 76.51 330.00 78.00 330.00 C 79.48 330.00 79.77 330.07 80.00 330.50 C 80.21 330.90 80.52 331.00 81.50 331.00 C 82.48 331.00 82.79 331.10 83.00 331.50 C 83.17 331.83 83.52 332.00 84.00 332.00 C 84.48 332.00 84.83 332.17 85.00 332.50 C 85.21 332.90 85.52 333.00 86.50 333.00 C 87.48 333.00 87.79 333.10 88.00 333.50 C 88.21 333.90 88.52 334.00 89.50 334.00 C 90.48 334.00 90.79 334.10 91.00 334.50 C 91.24 334.94 91.52 335.00 93.50 335.00 C 95.48 335.00 95.76 335.06 96.00 335.50 C 96.21 335.90 96.52 336.00 97.50 336.00 C 98.48 336.00 98.79 336.10 99.00 336.50 C 99.24 336.94 99.52 337.00 101.50 337.00 C 103.48 337.00 103.76 337.06 104.00 337.50 C 104.23 337.93 104.52 338.00 106.00 338.00 C 107.48 338.00 107.77 338.07 108.00 338.50 C 108.25 338.97 108.52 339.00 112.50 339.00 C 116.48 339.00 116.75 339.03 117.00 339.50 C 117.25 339.98 117.52 340.00 122.50 340.00 C 127.48 340.00 127.75 340.02 128.00 340.50 C 128.23 340.93 128.52 341.00 130.00 341.00 C 131.48 341.00 131.77 340.93 132.00 340.50 C 132.17 340.18 132.52 340.00 132.99 340.00 C 133.50 340.00 133.76 340.15 133.88 340.50 C 133.96 340.77 134.19 341.00 134.38 341.00 C 134.58 341.00 134.85 340.77 135.00 340.50 C 135.15 340.23 135.42 340.00 135.62 340.00 C 135.81 340.00 136.04 340.23 136.12 340.50 C 136.24 340.85 136.50 341.00 137.01 341.00 C 137.48 341.00 137.83 340.82 138.00 340.50 C 138.40 339.75 140.37 339.79 141.02 340.56 L 141.50 341.12 L 141.98 340.56 C 142.58 339.86 143.64 339.82 144.00 340.50 C 144.17 340.83 144.52 341.00 145.00 341.00 C 145.48 341.00 145.83 340.83 146.00 340.50 C 146.26 340.02 146.52 340.00 153.50 340.00 C 160.48 340.00 160.74 339.98 161.00 339.50 C 161.25 339.03 161.52 339.00 165.50 339.00 C 169.48 339.00 169.75 338.97 170.00 338.50 C 170.24 338.05 170.52 338.00 173.00 338.00 C 175.48 338.00 175.76 337.95 176.00 337.50 C 176.24 337.05 176.52 337.00 179.00 337.00 C 181.48 337.00 181.76 336.95 182.00 336.50 C 182.23 336.07 182.52 336.00 184.00 336.00 C 185.48 336.00 185.77 335.93 186.00 335.50 C 186.24 335.06 186.52 335.00 188.50 335.00 C 190.48 335.00 190.76 334.94 191.00 334.50 C 191.21 334.10 191.52 334.00 192.50 334.00 C 193.48 334.00 193.79 333.90 194.00 333.50 C 194.23 333.07 194.52 333.00 196.00 333.00 C 197.48 333.00 197.77 332.93 198.00 332.50 C 198.21 332.10 198.52 332.00 199.50 332.00 C 200.48 332.00 200.79 331.90 201.00 331.50 C 201.21 331.10 201.52 331.00 202.50 331.00 C 203.48 331.00 203.79 330.90 204.00 330.50 C 204.21 330.10 204.52 330.00 205.50 330.00 C 206.48 330.00 206.79 329.90 207.00 329.50 C 207.17 329.17 207.52 329.00 208.00 329.00 C 208.48 329.00 208.83 328.83 209.00 328.50 C 209.21 328.10 209.52 328.00 210.50 328.00 C 211.48 328.00 211.79 327.90 212.00 327.50 C 212.17 327.17 212.52 327.00 213.00 327.00 C 213.48 327.00 213.83 326.83 214.00 326.50 C 214.21 326.10 214.52 326.00 215.50 326.00 C 216.48 326.00 216.79 325.90 217.00 325.50 C 217.17 325.17 217.52 325.00 218.00 325.00 C 218.48 325.00 218.83 324.83 219.00 324.50 C 219.17 324.17 219.52 324.00 220.00 324.00 C 220.48 324.00 220.83 323.83 221.00 323.50 C 221.17 323.17 221.52 323.00 222.00 323.00 C 222.48 323.00 222.83 322.83 223.00 322.50 C 223.17 322.17 223.52 322.00 224.00 322.00 C 224.48 322.00 224.83 321.83 225.00 321.50 C 225.17 321.17 225.52 321.00 226.00 321.00 C 226.48 321.00 226.83 320.83 227.00 320.50 C 227.17 320.17 227.52 320.00 228.00 320.00 C 228.48 320.00 228.83 319.83 229.00 319.50 C 229.17 319.17 229.52 319.00 230.00 319.00 C 230.48 319.00 230.83 318.83 231.00 318.50 C 231.17 318.17 231.52 318.00 232.00 318.00 C 232.48 318.00 232.83 317.83 233.00 317.50 C 233.17 317.19 233.53 317.00 233.95 317.00 C 234.42 317.00 234.89 316.70 235.50 316.00 C 236.11 315.30 236.58 315.00 237.05 315.00 C 237.47 315.00 237.83 314.81 238.00 314.50 C 238.17 314.19 238.53 314.00 238.95 314.00 C 239.42 314.00 239.89 313.70 240.50 313.00 C 241.11 312.30 241.58 312.00 242.05 312.00 C 242.47 312.00 242.83 311.81 243.00 311.50 C 243.17 311.19 243.53 311.00 243.95 311.00 C 244.42 311.00 244.89 310.70 245.50 310.00 C 246.08 309.34 246.59 309.00 247.00 309.00 C 247.41 309.00 247.92 308.66 248.50 308.00 C 249.05 307.37 249.59 307.00 249.96 307.00 C 250.36 307.00 251.04 306.50 252.00 305.50 C 252.91 304.55 253.65 304.00 254.00 304.00 C 254.35 304.00 255.09 303.45 256.00 302.50 C 256.89 301.57 257.65 301.00 257.99 301.00 C 258.35 301.00 259.52 300.00 261.50 298.00 C 263.40 296.08 264.66 295.00 264.99 295.00 C 265.70 295.00 272.00 288.70 272.00 287.99 C 272.00 287.66 272.92 286.56 274.50 285.00 C 276.15 283.38 277.00 282.35 277.00 281.99 C 277.00 281.65 277.57 280.90 278.50 280.00 C 279.50 279.04 280.00 278.36 280.00 277.96 C 280.00 277.59 280.37 277.05 281.00 276.50 C 281.70 275.89 282.00 275.42 282.00 274.95 C 282.00 274.53 282.19 274.17 282.50 274.00 C 282.83 273.83 283.00 273.48 283.00 273.00 C 283.00 272.52 283.17 272.17 283.50 272.00 C 283.83 271.83 284.00 271.48 284.00 271.00 C 284.00 270.52 284.17 270.17 284.50 270.00 C 284.83 269.83 285.00 269.48 285.00 269.00 C 285.00 268.52 285.17 268.17 285.50 268.00 C 285.93 267.77 286.00 267.48 286.00 266.00 C 286.00 264.52 286.07 264.23 286.50 264.00 C 286.98 263.75 287.00 263.48 287.00 258.55 L 287.00 253.38 L 286.00 252.50 C 285.39 251.96 285.00 251.40 285.00 251.06 C 285.00 250.22 280.73 246.00 279.89 246.00 C 279.52 246.00 279.16 245.79 279.00 245.50 C 278.83 245.17 278.48 245.00 278.00 245.00 C 277.52 245.00 277.17 244.83 277.00 244.50 C 276.83 244.17 276.48 244.00 276.00 244.00 C 275.52 244.00 275.17 243.83 275.00 243.50 C 274.79 243.10 274.48 243.00 273.50 243.00 C 272.52 243.00 272.21 242.90 272.00 242.50 C 271.83 242.17 271.48 242.00 271.00 242.00 C 270.52 242.00 270.17 241.83 270.00 241.50 C 269.76 241.05 269.48 241.00 267.00 241.00 C 264.52 241.00 264.24 240.95 264.00 240.50 C 263.76 240.05 263.48 240.00 261.00 240.00 C 258.52 240.00 258.24 239.95 258.00 239.50 C 257.75 239.03 257.48 239.00 253.00 239.00 C 248.52 239.00 248.25 238.97 248.00 238.50 C 247.74 238.02 247.48 238.00 240.50 238.00 C 233.52 238.00 233.26 238.02 233.00 238.50 C 232.74 238.99 232.48 239.00 222.50 239.00 C 212.52 239.00 212.26 239.01 212.00 239.50 C 211.74 239.99 211.48 240.00 199.50 240.00 C 187.52 240.00 187.26 239.99 187.00 239.50 C 186.75 239.02 186.48 239.00 181.50 239.00 C 176.52 239.00 176.25 238.98 176.00 238.50 C 175.76 238.06 175.48 238.00 173.50 238.00 C 171.55 238.00 171.24 237.94 171.01 237.52 C 170.85 237.22 170.43 237.00 169.94 236.95 C 169.19 236.88 169.12 236.80 169.12 236.00 C 169.12 235.20 169.19 235.12 169.94 235.05 C 170.43 235.00 170.85 234.78 171.01 234.48 C 171.24 234.06 171.55 234.00 173.50 234.00 C 175.48 234.00 175.76 233.94 176.00 233.50 C 176.17 233.17 176.52 233.00 177.00 233.00 C 177.48 233.00 177.83 232.83 178.00 232.50 C 178.24 232.06 178.52 232.00 180.50 232.00 C 182.48 232.00 182.76 231.94 183.00 231.50 C 183.23 231.07 183.52 231.00 185.00 231.00 C 186.48 231.00 186.77 230.93 187.00 230.50 C 187.24 230.06 187.52 230.00 189.50 230.00 C 191.48 230.00 191.76 229.94 192.00 229.50 C 192.21 229.11 192.52 229.00 193.41 229.00 C 194.28 229.00 194.66 228.87 195.02 228.44 L 195.49 227.88 L 196.00 228.50 L 196.51 229.12 L 196.98 228.56 C 197.38 228.08 197.70 228.00 199.09 228.00 C 200.48 228.00 200.77 227.92 201.00 227.50 C 201.24 227.06 201.52 227.00 203.50 227.00 C 205.48 227.00 205.76 226.94 206.00 226.50 C 206.23 226.07 206.52 226.00 208.00 226.00 C 209.48 226.00 209.77 225.93 210.00 225.50 C 210.24 225.05 210.52 225.00 213.00 225.00 C 215.48 225.00 215.76 224.95 216.00 224.50 C 216.24 224.05 216.52 224.00 219.00 224.00 C 221.48 224.00 221.76 223.95 222.00 223.50 C 222.24 223.05 222.52 223.00 225.00 223.00 C 227.48 223.00 227.76 222.95 228.00 222.50 C 228.25 222.04 228.52 222.00 231.50 222.00 C 234.48 222.00 234.75 221.96 235.00 221.50 C 235.25 221.04 235.52 221.00 238.50 221.00 C 241.48 221.00 241.75 220.96 242.00 220.50 C 242.25 220.02 242.52 220.00 247.50 220.00 C 252.48 220.00 252.75 219.98 253.00 219.50 C 253.26 219.01 253.52 219.00 265.50 219.00 C 277.48 219.00 277.74 219.01 278.00 219.50 C 278.25 219.96 278.52 220.00 281.50 220.00 C 284.48 220.00 284.75 220.04 285.00 220.50 C 285.23 220.93 285.52 221.00 287.00 221.00 C 288.48 221.00 288.77 221.07 289.00 221.50 C 289.21 221.90 289.52 222.00 290.50 222.00 C 291.48 222.00 291.79 222.10 292.00 222.50 C 292.21 222.90 292.52 223.00 293.50 223.00 C 294.48 223.00 294.79 223.10 295.00 223.50 C 295.17 223.83 295.52 224.00 296.00 224.00 C 296.48 224.00 296.83 224.17 297.00 224.50 C 297.21 224.89 297.52 225.00 298.41 225.00 C 299.48 225.00 299.65 225.10 301.00 226.50 C 301.88 227.42 302.65 228.00 302.98 228.00 C 303.70 228.00 307.00 231.30 307.00 232.02 C 307.00 232.35 307.58 233.12 308.50 234.00 C 309.57 235.03 310.00 235.63 310.00 236.09 C 310.00 236.48 310.20 236.84 310.50 237.00 C 310.83 237.17 311.00 237.52 311.00 238.00 C 311.00 238.48 311.17 238.83 311.50 239.00 C 311.90 239.21 312.00 239.52 312.00 240.50 C 312.00 241.48 312.10 241.79 312.50 242.00 C 312.90 242.21 313.00 242.52 313.00 243.50 C 313.00 244.48 313.10 244.79 313.50 245.00 C 313.99 245.26 314.00 245.52 314.00 255.00 C 314.00 264.48 313.99 264.74 313.50 265.00 C 313.05 265.24 313.00 265.52 313.00 268.00 C 313.00 270.48 312.95 270.76 312.50 271.00 C 312.10 271.21 312.00 271.52 312.00 272.50 C 312.00 273.48 311.90 273.79 311.50 274.00 C 311.07 274.23 311.00 274.52 311.00 276.00 C 311.00 277.48 310.93 277.77 310.50 278.00 C 310.10 278.21 310.00 278.52 310.00 279.50 C 310.00 280.48 309.90 280.79 309.50 281.00 C 309.10 281.21 309.00 281.52 309.00 282.50 C 309.00 283.48 308.90 283.79 308.50 284.00 C 308.10 284.21 308.00 284.52 308.00 285.50 C 308.00 286.48 307.90 286.79 307.50 287.00 C 307.17 287.17 307.00 287.52 307.00 288.00 C 307.00 288.48 306.83 288.83 306.50 289.00 C 306.10 289.21 306.00 289.52 306.00 290.50 C 306.00 291.48 305.90 291.79 305.50 292.00 C 305.17 292.17 305.00 292.52 305.00 293.00 C 305.00 293.48 304.83 293.83 304.50 294.00 C 304.17 294.17 304.00 294.52 304.00 295.00 C 304.00 295.48 303.83 295.83 303.50 296.00 C 303.17 296.17 303.00 296.52 303.00 297.00 C 303.00 297.48 302.83 297.83 302.50 298.00 C 302.17 298.17 302.00 298.52 302.00 299.00 C 302.00 299.48 301.83 299.83 301.50 300.00 C 301.17 300.17 301.00 300.52 301.00 301.00 C 301.00 301.48 300.83 301.83 300.50 302.00 C 300.19 302.17 300.00 302.53 300.00 302.95 C 300.00 303.42 299.70 303.89 299.00 304.50 C 298.34 305.08 298.00 305.59 298.00 306.00 C 298.00 306.41 297.66 306.92 297.00 307.50 C 296.34 308.08 296.00 308.59 296.00 309.00 C 296.00 309.41 295.66 309.92 295.00 310.50 C 294.34 311.08 294.00 311.59 294.00 312.00 C 294.00 312.41 293.66 312.92 293.00 313.50 C 292.38 314.05 292.00 314.59 292.00 314.96 C 292.00 315.36 291.36 316.16 290.00 317.50 C 288.72 318.75 288.00 319.65 288.00 320.00 C 288.00 320.35 287.13 321.39 285.50 323.00 C 283.92 324.56 283.00 325.66 283.00 325.99 C 283.00 326.70 273.70 336.00 272.99 336.00 C 272.66 336.00 271.56 336.92 270.00 338.50 C 268.39 340.13 267.35 341.00 267.00 341.00 C 266.65 341.00 265.75 341.72 264.50 343.00 C 263.24 344.28 262.35 345.00 262.00 345.00 C 261.65 345.00 260.76 345.72 259.50 347.00 C 258.16 348.36 257.36 349.00 256.96 349.00 C 256.59 349.00 256.05 349.38 255.50 350.00 C 254.92 350.66 254.41 351.00 254.00 351.00 C 253.59 351.00 253.08 351.34 252.50 352.00 C 251.92 352.66 251.41 353.00 251.00 353.00 C 250.59 353.00 250.08 353.34 249.50 354.00 C 248.92 354.66 248.41 355.00 248.00 355.00 C 247.59 355.00 247.08 355.34 246.50 356.00 C 245.89 356.70 245.42 357.00 244.95 357.00 C 244.53 357.00 244.17 357.19 244.00 357.50 C 243.83 357.83 243.48 358.00 243.00 358.00 C 242.52 358.00 242.17 358.17 242.00 358.50 C 241.83 358.83 241.48 359.00 241.00 359.00 C 240.52 359.00 240.17 359.17 240.00 359.50 C 239.83 359.81 239.47 360.00 239.05 360.00 C 238.58 360.00 238.11 360.30 237.50 361.00 C 236.92 361.66 236.41 362.00 236.00 362.00 C 235.59 362.00 235.08 362.34 234.50 363.00 C 233.89 363.70 233.42 364.00 232.95 364.00 C 232.53 364.00 232.17 364.19 232.00 364.50 C 231.83 364.83 231.48 365.00 231.00 365.00 C 230.52 365.00 230.17 365.17 230.00 365.50 C 229.83 365.83 229.48 366.00 229.00 366.00 C 228.52 366.00 228.17 366.17 228.00 366.50 C 227.83 366.83 227.48 367.00 227.00 367.00 C 226.52 367.00 226.17 367.17 226.00 367.50 C 225.83 367.83 225.48 368.00 225.00 368.00 C 224.52 368.00 224.17 368.17 224.00 368.50 C 223.83 368.83 223.48 369.00 223.00 369.00 C 222.52 369.00 222.17 369.17 222.00 369.50 C 221.79 369.90 221.48 370.00 220.50 370.00 C 219.52 370.00 219.21 370.10 219.00 370.50 C 218.83 370.83 218.48 371.00 218.00 371.00 C 217.52 371.00 217.17 371.17 217.00 371.50 C 216.83 371.83 216.48 372.00 216.00 372.00 C 215.52 372.00 215.17 372.17 215.00 372.50 C 214.79 372.90 214.48 373.00 213.50 373.00 C 212.52 373.00 212.21 373.10 212.00 373.50 C 211.79 373.90 211.48 374.00 210.50 374.00 C 209.52 374.00 209.21 374.10 209.00 374.50 C 208.83 374.83 208.48 375.00 208.00 375.00 C 207.52 375.00 207.17 375.17 207.00 375.50 C 206.79 375.90 206.48 376.00 205.50 376.00 C 204.52 376.00 204.21 376.10 204.00 376.50 C 203.79 376.90 203.48 377.00 202.50 377.00 C 201.52 377.00 201.21 377.10 201.00 377.50 C 200.79 377.90 200.48 378.00 199.50 378.00 C 198.52 378.00 198.21 378.10 198.00 378.50 C 197.77 378.93 197.48 379.00 196.00 379.00 C 194.52 379.00 194.23 379.07 194.00 379.50 C 193.77 379.93 193.48 380.00 192.00 380.00 C 190.52 380.00 190.23 380.07 190.00 380.50 C 189.79 380.90 189.48 381.00 188.50 381.00 C 187.52 381.00 187.21 381.10 187.00 381.50 C 186.76 381.95 186.48 382.00 184.00 382.00 C 181.52 382.00 181.24 382.05 181.00 382.50 C 180.76 382.95 180.48 383.00 178.00 383.00 C 175.52 383.00 175.24 383.05 175.00 383.50 C 174.75 383.97 174.48 384.00 171.00 384.00 C 167.52 384.00 167.25 384.03 167.00 384.50 C 166.75 384.97 166.48 385.00 162.03 385.00 C 159.45 385.00 157.26 384.93 157.17 384.83 Z M 43.00 343.50 C 42.77 343.07 42.48 343.00 41.00 343.00 C 39.52 343.00 39.23 342.93 39.00 342.50 C 38.83 342.17 38.48 342.00 38.00 342.00 C 37.52 342.00 37.17 341.83 37.00 341.50 C 36.83 341.19 36.47 341.00 36.05 341.00 C 35.58 341.00 35.11 340.70 34.50 340.00 C 33.96 339.39 33.40 339.00 33.05 339.00 C 32.30 339.00 29.00 335.73 29.00 334.98 C 29.00 334.65 28.42 333.88 27.50 333.00 C 26.43 331.97 26.00 331.37 26.00 330.91 C 26.00 330.52 25.80 330.16 25.50 330.00 C 25.17 329.83 25.00 329.48 25.00 329.00 C 25.00 328.52 24.83 328.17 24.50 328.00 C 24.07 327.77 24.00 327.48 24.00 326.00 C 24.00 324.52 23.93 324.23 23.50 324.00 C 23.03 323.75 23.00 323.48 23.00 320.00 C 23.00 316.52 23.03 316.25 23.50 316.00 C 23.90 315.79 24.00 315.48 24.00 314.50 C 24.00 313.52 24.10 313.21 24.50 313.00 C 24.90 312.79 25.00 312.48 25.00 311.50 C 25.00 310.52 25.10 310.21 25.50 310.00 C 25.79 309.84 26.00 309.48 26.00 309.11 C 26.00 308.22 33.22 301.00 34.11 301.00 C 34.48 301.00 34.84 300.79 35.00 300.50 C 35.17 300.17 35.52 300.00 36.00 300.00 C 36.48 300.00 36.83 299.83 37.00 299.50 C 37.17 299.17 37.52 299.00 38.00 299.00 C 38.48 299.00 38.83 298.83 39.00 298.50 C 39.21 298.10 39.52 298.00 40.50 298.00 C 41.48 298.00 41.79 297.90 42.00 297.50 C 42.24 297.05 42.52 297.00 44.99 297.00 C 46.66 297.00 47.78 296.90 47.89 296.73 C 48.15 296.30 46.71 295.01 45.95 295.01 C 45.53 295.00 45.16 294.81 45.00 294.50 C 44.84 294.20 44.48 294.00 44.11 294.00 C 43.23 294.00 40.07 290.83 39.96 289.84 C 39.89 289.23 39.74 289.11 39.00 289.00 C 38.26 288.89 38.11 288.77 38.04 288.16 C 37.98 287.61 37.10 286.58 34.48 283.98 C 32.15 281.66 31.00 280.35 31.00 279.99 C 31.00 279.65 30.42 278.89 29.50 278.00 C 28.56 277.10 28.00 276.35 28.00 276.01 C 28.00 275.65 27.30 274.77 26.00 273.50 C 24.53 272.07 24.00 271.37 24.00 270.91 C 24.00 270.52 23.80 270.16 23.50 270.00 C 23.19 269.83 23.00 269.47 23.00 269.05 C 23.00 268.58 22.70 268.11 22.00 267.50 C 21.30 266.89 21.00 266.42 21.00 265.95 C 21.00 265.53 20.81 265.17 20.50 265.00 C 20.19 264.83 20.00 264.47 20.00 264.05 C 20.00 263.58 19.70 263.11 19.00 262.50 C 18.30 261.89 18.00 261.42 18.00 260.95 C 18.00 260.53 17.81 260.17 17.50 260.00 C 17.10 259.79 17.00 259.48 17.00 258.50 C 17.00 257.52 16.90 257.21 16.50 257.00 C 16.17 256.83 16.00 256.48 16.00 256.00 C 16.00 255.52 15.83 255.17 15.50 255.00 C 15.17 254.83 15.00 254.48 15.00 254.00 C 15.00 253.52 14.83 253.17 14.50 253.00 C 14.10 252.79 14.00 252.48 14.00 251.50 C 14.00 250.52 13.90 250.21 13.50 250.00 C 13.10 249.79 13.00 249.48 13.00 248.50 C 13.00 247.52 12.90 247.21 12.50 247.00 C 12.10 246.79 12.00 246.48 12.00 245.50 C 12.00 244.52 11.90 244.21 11.50 244.00 C 11.07 243.77 11.00 243.48 11.00 242.00 C 11.00 240.52 10.93 240.23 10.50 240.00 C 10.06 239.76 10.00 239.48 10.00 237.50 C 10.00 235.52 9.94 235.24 9.50 235.00 C 9.04 234.75 9.00 234.48 9.00 231.50 C 9.00 228.52 8.96 228.25 8.50 228.00 C 8.01 227.74 8.00 227.48 8.00 219.00 C 8.00 210.52 8.01 210.26 8.50 210.00 C 8.97 209.75 9.00 209.48 9.00 206.00 C 9.00 202.52 9.03 202.25 9.50 202.00 C 9.95 201.76 10.00 201.48 10.00 199.00 C 10.00 196.52 10.05 196.24 10.50 196.00 C 10.90 195.79 11.00 195.48 11.00 194.50 C 11.00 193.52 11.10 193.21 11.50 193.00 C 11.93 192.77 12.00 192.48 12.00 191.00 C 12.00 189.52 12.07 189.23 12.50 189.00 C 12.90 188.79 13.00 188.48 13.00 187.50 C 13.00 186.52 13.10 186.21 13.50 186.00 C 13.83 185.83 14.00 185.48 14.00 185.00 C 14.00 184.52 14.17 184.17 14.50 184.00 C 14.90 183.79 15.00 183.48 15.00 182.50 C 15.00 181.52 15.10 181.21 15.50 181.00 C 15.83 180.83 16.00 180.48 16.00 180.00 C 16.00 179.52 16.17 179.17 16.50 179.00 C 16.90 178.79 17.00 178.48 17.00 177.50 C 17.00 176.52 17.10 176.21 17.50 176.00 C 17.83 175.83 18.00 175.48 18.00 175.00 C 18.00 174.52 18.17 174.17 18.50 174.00 C 18.83 173.83 19.00 173.48 19.00 173.00 C 19.00 172.52 19.17 172.17 19.50 172.00 C 19.81 171.83 20.00 171.47 20.00 171.05 C 20.00 170.58 20.30 170.11 21.00 169.50 C 21.70 168.89 22.00 168.42 22.00 167.95 C 22.00 167.53 22.19 167.17 22.50 167.00 C 22.81 166.83 23.00 166.47 23.00 166.05 C 23.00 165.58 23.30 165.11 24.00 164.50 C 24.70 163.89 25.00 163.42 25.00 162.95 C 25.00 162.53 25.19 162.17 25.50 162.00 C 25.80 161.84 26.00 161.48 26.00 161.09 C 26.00 160.63 26.43 160.03 27.50 159.00 C 28.50 158.04 29.00 157.36 29.00 156.96 C 29.00 156.59 29.37 156.05 30.00 155.50 C 30.63 154.95 31.00 154.41 31.00 154.04 C 31.00 153.64 31.50 152.96 32.50 152.00 C 33.43 151.11 34.00 150.35 34.00 150.01 C 34.00 149.65 35.00 148.48 37.00 146.50 C 38.91 144.61 40.00 143.34 40.00 143.01 C 40.00 142.30 54.30 128.00 55.01 128.00 C 55.34 128.00 56.77 126.74 59.00 124.50 C 61.31 122.18 62.65 121.00 63.01 121.00 C 63.35 121.00 64.26 120.26 65.50 119.00 C 66.77 117.70 67.65 117.00 68.01 117.00 C 68.35 117.00 69.10 116.44 70.00 115.50 C 70.91 114.55 71.65 114.00 72.00 114.00 C 72.35 114.00 73.09 113.45 74.00 112.50 C 74.96 111.50 75.64 111.00 76.04 111.00 C 76.41 111.00 76.95 110.63 77.50 110.00 C 78.05 109.37 78.59 109.00 78.96 109.00 C 79.36 109.00 80.04 108.50 81.00 107.50 C 82.03 106.43 82.63 106.00 83.09 106.00 C 83.48 106.00 83.84 105.80 84.00 105.50 C 84.17 105.17 84.52 105.00 85.00 105.00 C 85.48 105.00 85.83 104.83 86.00 104.50 C 86.17 104.19 86.53 104.00 86.95 104.00 C 87.42 104.00 87.89 103.70 88.50 103.00 C 89.11 102.30 89.58 102.00 90.05 102.00 C 90.47 102.00 90.83 101.81 91.00 101.50 C 91.21 101.11 91.52 101.00 92.45 101.00 C 93.51 101.00 93.71 100.89 94.50 100.00 C 95.11 99.30 95.58 99.00 96.05 99.00 C 96.47 99.00 96.83 98.81 97.00 98.50 C 97.17 98.17 97.52 98.00 98.00 98.00 C 98.48 98.00 98.83 97.83 99.00 97.50 C 99.17 97.17 99.52 97.00 100.00 97.00 C 100.48 97.00 100.83 96.83 101.00 96.50 C 101.17 96.17 101.52 96.00 102.00 96.00 C 102.48 96.00 102.83 95.83 103.00 95.50 C 103.17 95.17 103.52 95.00 104.00 95.00 C 104.48 95.00 104.83 94.83 105.00 94.50 C 105.17 94.17 105.52 94.00 106.00 94.00 C 106.48 94.00 106.83 93.83 107.00 93.50 C 107.17 93.17 107.52 93.00 108.00 93.00 C 108.48 93.00 108.83 92.83 109.00 92.50 C 109.17 92.17 109.52 92.00 110.00 92.00 C 110.48 92.00 110.83 91.83 111.00 91.50 C 111.17 91.17 111.52 91.00 112.00 91.00 C 112.48 91.00 112.83 90.83 113.00 90.50 C 113.17 90.17 113.52 90.00 114.00 90.00 C 114.48 90.00 114.83 89.83 115.00 89.50 C 115.17 89.17 115.52 89.00 116.00 89.00 C 116.48 89.00 116.83 88.83 117.00 88.50 C 117.21 88.10 117.52 88.00 118.50 88.00 C 119.48 88.00 119.79 87.90 120.00 87.50 C 120.17 87.17 120.52 87.00 121.00 87.00 C 121.48 87.00 121.83 86.83 122.00 86.50 C 122.17 86.17 122.52 86.00 123.00 86.00 C 123.48 86.00 123.83 85.83 124.00 85.50 C 124.21 85.10 124.52 85.00 125.50 85.00 C 126.48 85.00 126.79 84.90 127.00 84.50 C 127.21 84.10 127.52 84.00 128.50 84.00 C 129.48 84.00 129.79 83.90 130.00 83.50 C 130.17 83.17 130.52 83.00 131.00 83.00 C 131.48 83.00 131.83 82.83 132.00 82.50 C 132.21 82.10 132.52 82.00 133.50 82.00 C 134.48 82.00 134.79 81.90 135.00 81.50 C 135.21 81.10 135.52 81.00 136.50 81.00 C 137.48 81.00 137.79 80.90 138.00 80.50 C 138.21 80.10 138.52 80.00 139.50 80.00 C 140.48 80.00 140.79 79.90 141.00 79.50 C 141.21 79.10 141.52 79.00 142.50 79.00 C 143.48 79.00 143.79 78.90 144.00 78.50 C 144.21 78.10 144.52 78.00 145.50 78.00 C 146.48 78.00 146.79 77.90 147.00 77.50 C 147.21 77.10 147.52 77.00 148.50 77.00 C 149.48 77.00 149.79 76.90 150.00 76.50 C 150.23 76.07 150.52 76.00 152.00 76.00 C 153.48 76.00 153.77 75.93 154.00 75.50 C 154.21 75.10 154.52 75.00 155.50 75.00 C 156.48 75.00 156.79 74.90 157.00 74.50 C 157.24 74.06 157.52 74.00 159.50 74.00 C 161.48 74.00 161.76 73.94 162.00 73.50 C 162.23 73.07 162.52 73.00 164.00 73.00 C 165.48 73.00 165.77 72.93 166.00 72.50 C 166.24 72.05 166.52 72.00 169.00 72.00 C 171.48 72.00 171.76 71.95 172.00 71.50 C 172.23 71.07 172.52 71.00 174.00 71.00 C 175.48 71.00 175.77 70.93 176.00 70.50 C 176.25 70.03 176.52 70.00 180.00 70.00 C 183.48 70.00 183.75 69.97 184.00 69.50 C 184.25 69.04 184.52 69.00 187.50 69.00 C 190.48 69.00 190.75 68.96 191.00 68.50 C 191.26 68.02 191.52 68.00 197.00 68.00 C 202.48 68.00 202.74 67.98 203.00 67.50 C 203.26 67.01 203.52 67.00 220.00 67.00 C 236.48 67.00 236.74 67.01 237.00 67.50 C 237.25 67.96 237.52 68.00 240.50 68.00 C 243.48 68.00 243.75 68.04 244.00 68.50 C 244.25 68.96 244.52 69.00 247.50 69.00 C 250.48 69.00 250.75 69.04 251.00 69.50 C 251.23 69.93 251.52 70.00 253.00 70.00 C 254.47 70.00 254.77 70.08 255.00 70.49 C 255.22 70.91 255.57 70.99 257.57 71.05 L 259.88 71.12 L 259.88 72.00 L 259.88 72.88 L 246.07 72.94 C 232.57 73.00 232.26 73.02 232.00 73.50 C 231.74 73.98 231.47 74.00 225.50 74.00 C 219.52 74.00 219.26 74.02 219.00 74.50 C 218.75 74.97 218.48 75.00 215.00 75.00 C 211.52 75.00 211.25 75.03 211.00 75.50 C 210.75 75.96 210.48 76.00 207.50 76.00 C 204.52 76.00 204.25 76.04 204.00 76.50 C 203.76 76.94 203.48 77.00 201.50 77.00 C 199.52 77.00 199.24 77.06 199.00 77.50 C 198.76 77.94 198.48 78.00 196.50 78.00 C 194.52 78.00 194.24 78.06 194.00 78.50 C 193.77 78.93 193.48 79.00 192.00 79.00 C 190.52 79.00 190.23 79.07 190.00 79.50 C 189.76 79.94 189.48 80.00 187.50 80.00 C 185.52 80.00 185.24 80.06 185.00 80.50 C 184.76 80.95 184.48 81.00 182.00 81.00 C 179.52 81.00 179.24 81.05 179.00 81.50 C 178.79 81.90 178.48 82.00 177.50 82.00 C 176.52 82.00 176.21 82.10 176.00 82.50 C 175.79 82.90 175.48 83.00 174.50 83.00 C 173.52 83.00 173.21 83.10 173.00 83.50 C 172.77 83.93 172.48 84.00 171.00 84.00 C 169.52 84.00 169.23 84.07 169.00 84.50 C 168.79 84.90 168.48 85.00 167.50 85.00 C 166.52 85.00 166.21 85.10 166.00 85.50 C 165.79 85.90 165.48 86.00 164.50 86.00 C 163.52 86.00 163.21 86.10 163.00 86.50 C 162.79 86.90 162.48 87.00 161.50 87.00 C 160.52 87.00 160.21 87.10 160.00 87.50 C 159.79 87.90 159.48 88.00 158.50 88.00 C 157.52 88.00 157.21 88.10 157.00 88.50 C 156.77 88.93 156.48 89.00 155.00 89.00 C 153.52 89.00 153.23 89.07 153.00 89.50 C 152.83 89.83 152.48 90.00 152.00 90.00 C 151.52 90.00 151.17 90.17 151.00 90.50 C 150.79 90.90 150.48 91.00 149.50 91.00 C 148.52 91.00 148.21 91.10 148.00 91.50 C 147.79 91.90 147.48 92.00 146.50 92.00 C 145.52 92.00 145.21 92.10 145.00 92.50 C 144.83 92.83 144.48 93.00 144.00 93.00 C 143.52 93.00 143.17 93.17 143.00 93.50 C 142.79 93.89 142.48 94.00 141.55 94.00 C 140.49 94.00 140.29 94.11 139.50 95.00 C 138.89 95.70 138.42 96.00 137.95 96.00 C 137.53 96.00 137.17 96.19 137.00 96.50 C 136.79 96.89 136.48 97.00 135.55 97.00 C 134.49 97.00 134.29 97.11 133.50 98.00 C 132.71 98.89 132.51 99.00 131.45 99.00 C 130.52 99.00 130.21 99.11 130.00 99.50 C 129.83 99.81 129.47 100.00 129.05 100.00 C 128.58 100.00 128.11 100.30 127.50 101.00 C 126.89 101.70 126.42 102.00 125.95 102.00 C 125.53 102.00 125.17 102.19 125.00 102.50 C 124.83 102.83 124.48 103.00 124.00 103.00 C 123.52 103.00 123.17 103.17 123.00 103.50 C 122.83 103.83 122.48 104.00 122.00 104.00 C 121.52 104.00 121.17 104.17 121.00 104.50 C 120.83 104.81 120.47 105.00 120.05 105.00 C 119.58 105.00 119.11 105.30 118.50 106.00 C 117.89 106.70 117.42 107.00 116.95 107.00 C 116.53 107.00 116.17 107.19 116.00 107.50 C 115.83 107.81 115.47 108.00 115.05 108.00 C 114.58 108.00 114.11 108.30 113.50 109.00 C 112.92 109.66 112.41 110.00 112.00 110.00 C 111.59 110.00 111.08 110.34 110.50 111.00 C 109.95 111.63 109.41 112.00 109.04 112.00 C 108.64 112.00 107.96 112.50 107.00 113.50 C 106.04 114.50 105.36 115.00 104.96 115.00 C 104.59 115.00 104.05 115.37 103.50 116.00 C 102.95 116.63 102.41 117.00 102.04 117.00 C 101.64 117.00 100.96 117.50 100.00 118.50 C 99.10 119.44 98.35 120.00 98.01 120.00 C 97.65 120.00 96.77 120.70 95.50 122.00 C 94.26 123.27 93.35 124.00 93.01 124.00 C 92.65 124.00 91.46 125.02 89.50 127.00 C 87.61 128.91 86.34 130.00 86.01 130.00 C 85.29 130.00 66.00 149.30 66.00 150.02 C 66.00 150.34 65.07 151.45 63.50 153.00 C 61.87 154.61 61.00 155.65 61.00 156.00 C 61.00 156.35 60.28 157.25 59.00 158.50 C 57.64 159.84 57.00 160.64 57.00 161.04 C 57.00 161.41 56.62 161.95 56.00 162.50 C 55.34 163.08 55.00 163.59 55.00 164.00 C 55.00 164.41 54.66 164.92 54.00 165.50 C 53.34 166.08 53.00 166.59 53.00 167.00 C 53.00 167.41 52.66 167.92 52.00 168.50 C 51.30 169.11 51.00 169.58 51.00 170.05 C 51.00 170.47 50.81 170.83 50.50 171.00 C 50.19 171.17 50.00 171.53 50.00 171.95 C 50.00 172.42 49.70 172.89 49.00 173.50 C 48.30 174.11 48.00 174.58 48.00 175.05 C 48.00 175.47 47.81 175.83 47.50 176.00 C 47.17 176.17 47.00 176.52 47.00 177.00 C 47.00 177.48 46.83 177.83 46.50 178.00 C 46.17 178.17 46.00 178.52 46.00 179.00 C 46.00 179.48 45.83 179.83 45.50 180.00 C 45.17 180.17 45.00 180.52 45.00 181.00 C 45.00 181.48 44.83 181.83 44.50 182.00 C 44.10 182.21 44.00 182.52 44.00 183.50 C 44.00 184.48 43.90 184.79 43.50 185.00 C 43.17 185.17 43.00 185.52 43.00 186.00 C 43.00 186.48 42.83 186.83 42.50 187.00 C 42.10 187.21 42.00 187.52 42.00 188.50 C 42.00 189.48 41.90 189.79 41.50 190.00 C 41.10 190.21 41.00 190.52 41.00 191.50 C 41.00 192.48 40.90 192.79 40.50 193.00 C 40.10 193.21 40.00 193.52 40.00 194.50 C 40.00 195.48 39.90 195.79 39.50 196.00 C 39.10 196.21 39.00 196.52 39.00 197.50 C 39.00 198.48 38.90 198.79 38.50 199.00 C 38.06 199.24 38.00 199.52 38.00 201.50 C 38.00 203.48 37.94 203.76 37.50 204.00 C 37.07 204.23 37.00 204.52 37.00 206.00 C 37.00 207.48 36.93 207.77 36.50 208.00 C 36.04 208.25 36.00 208.52 36.00 211.50 C 36.00 214.48 35.96 214.75 35.50 215.00 C 35.03 215.25 35.00 215.52 35.00 220.00 C 35.00 224.48 34.97 224.75 34.50 225.00 C 34.02 225.26 34.00 225.52 34.00 231.00 C 34.00 236.48 34.02 236.74 34.50 237.00 C 34.98 237.25 35.00 237.52 35.00 242.50 C 35.00 247.48 35.02 247.75 35.50 248.00 C 35.94 248.24 36.00 248.52 36.00 250.50 C 36.00 252.48 36.06 252.76 36.50 253.00 C 36.94 253.24 37.00 253.52 37.00 255.50 C 37.00 257.48 37.06 257.76 37.50 258.00 C 37.93 258.23 38.00 258.52 38.00 260.00 C 38.00 261.48 38.07 261.77 38.50 262.00 C 38.90 262.21 39.00 262.52 39.00 263.50 C 39.00 264.48 39.10 264.79 39.50 265.00 C 39.90 265.21 40.00 265.52 40.00 266.50 C 40.00 267.48 40.10 267.79 40.50 268.00 C 40.90 268.21 41.00 268.52 41.00 269.50 C 41.00 270.48 41.10 270.79 41.50 271.00 C 41.83 271.17 42.00 271.52 42.00 272.00 C 42.00 272.48 42.17 272.83 42.50 273.00 C 42.90 273.21 43.00 273.52 43.00 274.50 C 43.00 275.48 43.10 275.79 43.50 276.00 C 43.83 276.17 44.00 276.52 44.00 277.00 C 44.00 277.48 44.17 277.83 44.50 278.00 C 44.83 278.17 45.00 278.52 45.00 279.00 C 45.00 279.48 45.17 279.83 45.50 280.00 C 45.83 280.17 46.00 280.52 46.00 281.00 C 46.00 281.48 46.17 281.83 46.50 282.00 C 46.83 282.17 47.00 282.52 47.00 283.00 C 47.00 283.48 47.17 283.83 47.50 284.00 C 47.83 284.17 48.00 284.52 48.00 285.00 C 48.00 285.48 48.17 285.83 48.50 286.00 C 48.83 286.17 49.00 286.52 49.00 287.00 C 49.00 287.48 49.17 287.83 49.50 288.00 C 49.81 288.17 50.00 288.53 50.00 288.95 C 50.00 289.42 50.30 289.89 51.00 290.50 C 51.70 291.11 52.00 291.58 52.00 292.05 C 52.00 292.47 52.19 292.83 52.49 293.00 C 52.91 293.22 52.99 293.57 53.05 295.57 L 53.12 297.88 L 54.93 297.95 C 56.43 298.01 56.79 298.11 57.01 298.51 C 57.17 298.83 57.53 299.00 58.00 299.00 C 58.48 299.00 58.83 299.17 59.00 299.50 C 59.17 299.83 59.52 300.00 60.00 300.00 C 60.48 300.00 60.83 300.17 61.00 300.50 C 61.16 300.80 61.52 301.00 61.91 301.00 C 62.37 301.00 62.97 301.43 64.00 302.50 C 64.89 303.42 65.65 304.00 65.98 304.00 C 66.76 304.00 69.00 306.31 69.00 307.10 C 69.00 307.48 69.20 307.84 69.50 308.00 C 69.83 308.17 70.00 308.52 70.00 309.00 C 70.00 309.48 70.17 309.83 70.50 310.00 C 70.83 310.17 71.00 310.52 71.00 311.00 C 71.00 311.48 71.17 311.83 71.50 312.00 C 71.93 312.23 72.00 312.52 72.00 314.00 C 72.00 315.48 72.07 315.77 72.50 316.00 C 72.97 316.25 73.00 316.52 73.00 320.50 C 73.00 324.48 72.97 324.75 72.50 325.00 C 72.10 325.21 72.00 325.52 72.00 326.50 C 72.00 327.48 71.90 327.79 71.50 328.00 C 71.11 328.21 71.00 328.52 71.00 329.45 C 71.00 330.51 70.89 330.71 70.00 331.50 C 69.39 332.03 69.00 332.60 69.00 332.94 C 69.00 333.73 63.73 339.00 62.94 339.00 C 62.60 339.00 62.03 339.39 61.50 340.00 C 60.89 340.70 60.42 341.00 59.95 341.00 C 59.53 341.00 59.17 341.19 59.00 341.50 C 58.83 341.83 58.48 342.00 58.00 342.00 C 57.52 342.00 57.17 342.17 57.00 342.50 C 56.79 342.90 56.48 343.00 55.50 343.00 C 54.52 343.00 54.21 343.10 54.00 343.50 C 53.75 343.98 53.48 344.00 48.50 344.00 C 43.52 344.00 43.25 343.98 43.00 343.50 Z M 53.00 334.50 C 53.21 334.11 53.52 334.00 54.42 334.00 C 55.44 334.00 55.68 333.89 56.48 333.02 C 57.06 332.40 57.65 332.01 58.13 331.96 C 58.74 331.89 58.89 331.75 58.96 331.14 C 59.02 330.63 59.50 329.97 60.52 328.98 C 61.57 327.96 62.00 327.37 62.00 326.91 C 62.00 326.52 62.20 326.16 62.50 326.00 C 62.98 325.75 63.00 325.48 63.00 320.50 C 63.00 315.52 62.98 315.25 62.50 315.00 C 62.21 314.84 62.00 314.48 62.00 314.11 C 62.00 313.23 57.77 309.00 56.89 309.00 C 56.52 309.00 56.16 308.79 56.00 308.50 C 55.83 308.17 55.48 308.00 55.00 308.00 C 54.52 308.00 54.17 307.83 54.00 307.50 C 53.75 307.03 53.48 307.00 49.50 307.00 C 45.52 307.00 45.25 307.03 45.00 307.50 C 44.77 307.92 44.48 308.00 43.11 308.00 L 41.49 308.00 L 38.25 311.25 C 35.05 314.44 35.00 314.51 35.00 315.61 C 35.00 316.48 34.89 316.79 34.50 317.00 C 34.04 317.25 34.00 317.52 34.00 320.50 C 34.00 323.48 34.04 323.75 34.50 324.00 C 34.92 324.23 35.00 324.52 35.00 325.89 L 35.00 327.51 L 38.25 330.75 C 40.66 333.17 41.65 334.00 42.11 334.00 C 42.48 334.00 42.84 334.21 43.00 334.50 C 43.25 334.97 43.52 335.00 48.00 335.00 C 52.48 335.00 52.75 334.97 53.00 334.50 Z M 131.00 265.50 C 130.76 265.06 130.48 265.00 128.50 265.00 C 126.52 265.00 126.24 264.94 126.00 264.50 C 125.76 264.06 125.48 264.00 123.50 264.00 C 121.52 264.00 121.24 263.94 121.00 263.50 C 120.79 263.10 120.48 263.00 119.50 263.00 C 118.52 263.00 118.21 262.90 118.00 262.50 C 117.77 262.07 117.48 262.00 116.00 262.00 C 114.52 262.00 114.23 261.93 114.00 261.50 C 113.83 261.17 113.48 261.00 113.00 261.00 C 112.52 261.00 112.17 260.83 112.00 260.50 C 111.83 260.17 111.48 260.00 111.00 260.00 C 110.52 260.00 110.17 259.83 110.00 259.50 C 109.83 259.17 109.48 259.00 109.00 259.00 C 108.52 259.00 108.17 258.83 108.00 258.50 C 107.83 258.17 107.48 258.00 107.00 258.00 C 106.52 258.00 106.17 257.83 106.00 257.50 C 105.83 257.19 105.47 257.00 105.05 257.00 C 104.58 257.00 104.11 256.70 103.50 256.00 C 102.97 255.39 102.40 255.00 102.06 255.00 C 101.26 255.00 95.00 248.74 95.00 247.94 C 95.00 247.60 94.61 247.03 94.00 246.50 C 93.30 245.89 93.00 245.42 93.00 244.95 C 93.00 244.53 92.81 244.17 92.50 244.00 C 92.17 243.83 92.00 243.48 92.00 243.00 C 92.00 242.52 91.83 242.17 91.50 242.00 C 91.07 241.77 91.00 241.48 91.00 240.00 C 91.00 238.52 90.93 238.23 90.50 238.00 C 90.06 237.76 90.00 237.48 90.00 235.50 C 90.00 233.52 90.06 233.24 90.50 233.00 C 90.96 232.75 91.00 232.48 91.00 229.50 C 91.00 226.52 91.04 226.25 91.50 226.00 C 91.90 225.79 92.00 225.48 92.00 224.50 C 92.00 223.52 92.10 223.21 92.50 223.00 C 92.83 222.83 93.00 222.48 93.00 222.00 C 93.00 221.52 93.17 221.17 93.50 221.00 C 93.81 220.83 94.00 220.47 94.00 220.05 C 94.00 219.58 94.30 219.11 95.00 218.50 C 95.66 217.92 96.00 217.41 96.00 217.00 C 96.00 216.59 96.34 216.08 97.00 215.50 C 97.62 214.96 98.00 214.41 98.00 214.05 C 98.00 213.64 98.76 212.71 100.48 211.02 C 102.30 209.22 102.98 208.38 103.04 207.85 C 103.11 207.23 103.26 207.11 104.00 207.00 C 104.78 206.89 104.89 206.78 105.00 206.00 C 105.11 205.22 105.22 205.11 106.00 205.00 C 106.78 204.89 106.89 204.78 107.00 204.00 C 107.11 203.26 107.23 203.11 107.85 203.04 C 108.38 202.98 109.22 202.30 111.02 200.48 C 112.71 198.76 113.64 198.00 114.05 198.00 C 114.41 198.00 114.96 197.62 115.50 197.00 C 116.05 196.38 116.59 196.00 116.96 196.00 C 117.36 196.00 118.16 195.36 119.50 194.00 C 120.93 192.53 121.63 192.00 122.09 192.00 C 122.48 192.00 122.84 191.80 123.00 191.50 C 123.17 191.17 123.52 191.00 124.00 191.00 C 124.48 191.00 124.83 190.83 125.00 190.50 C 125.17 190.19 125.53 190.00 125.95 190.00 C 126.42 190.00 126.89 189.70 127.50 189.00 C 128.11 188.30 128.58 188.00 129.05 188.00 C 129.47 188.00 129.83 187.81 130.00 187.50 C 130.17 187.19 130.53 187.00 130.95 187.00 C 131.42 187.00 131.89 186.70 132.50 186.00 C 133.29 185.11 133.49 185.00 134.55 185.00 C 135.48 185.00 135.79 184.89 136.00 184.50 C 136.17 184.19 136.53 184.00 136.95 184.00 C 137.42 184.00 137.89 183.70 138.50 183.00 C 139.11 182.30 139.58 182.00 140.05 182.00 C 140.47 182.00 140.83 181.81 141.00 181.50 C 141.17 181.17 141.52 181.00 142.00 181.00 C 142.48 181.00 142.83 180.83 143.00 180.50 C 143.17 180.17 143.52 180.00 144.00 180.00 C 144.48 180.00 144.83 179.83 145.00 179.50 C 145.17 179.17 145.52 179.00 146.00 179.00 C 146.48 179.00 146.83 178.83 147.00 178.50 C 147.21 178.10 147.52 178.00 148.50 178.00 C 149.48 178.00 149.79 177.90 150.00 177.50 C 150.17 177.17 150.52 177.00 151.00 177.00 C 151.48 177.00 151.83 176.83 152.00 176.50 C 152.21 176.10 152.52 176.00 153.50 176.00 C 154.48 176.00 154.79 175.90 155.00 175.50 C 155.17 175.17 155.52 175.00 156.00 175.00 C 156.48 175.00 156.83 174.83 157.00 174.50 C 157.21 174.10 157.52 174.00 158.50 174.00 C 159.48 174.00 159.79 173.90 160.00 173.50 C 160.21 173.10 160.52 173.00 161.50 173.00 C 162.48 173.00 162.79 172.90 163.00 172.50 C 163.21 172.10 163.52 172.00 164.50 172.00 C 165.48 172.00 165.79 171.90 166.00 171.50 C 166.21 171.10 166.52 171.00 167.50 171.00 C 168.48 171.00 168.79 170.90 169.00 170.50 C 169.23 170.07 169.52 170.00 171.00 170.00 C 172.48 170.00 172.77 169.93 173.00 169.50 C 173.23 169.07 173.52 169.00 175.00 169.00 C 176.48 169.00 176.77 168.93 177.00 168.50 C 177.21 168.10 177.52 168.00 178.50 168.00 C 179.48 168.00 179.79 167.90 180.00 167.50 C 180.23 167.07 180.52 167.00 182.00 167.00 C 183.48 167.00 183.77 166.93 184.00 166.50 C 184.23 166.07 184.52 166.00 186.00 166.00 C 187.48 166.00 187.77 165.93 188.00 165.50 C 188.24 165.06 188.52 165.00 190.50 165.00 C 192.48 165.00 192.76 164.94 193.00 164.50 C 193.23 164.07 193.52 164.00 195.00 164.00 C 196.48 164.00 196.77 163.93 197.00 163.50 C 197.24 163.06 197.52 163.00 199.50 163.00 C 201.48 163.00 201.76 162.94 202.00 162.50 C 202.24 162.06 202.52 162.00 204.50 162.00 C 206.48 162.00 206.76 161.94 207.00 161.50 C 207.24 161.06 207.52 161.00 209.50 161.00 C 211.48 161.00 211.76 160.94 212.00 160.50 C 212.23 160.07 212.52 160.00 214.00 160.00 C 215.48 160.00 215.77 159.93 216.00 159.50 C 216.24 159.06 216.52 159.00 218.50 159.00 C 220.48 159.00 220.76 158.94 221.00 158.50 C 221.23 158.07 221.52 158.00 223.00 158.00 C 224.48 158.00 224.77 157.93 225.00 157.50 C 225.23 157.07 225.52 157.00 227.00 157.00 C 228.48 157.00 228.77 156.93 229.00 156.50 C 229.23 156.07 229.52 156.00 231.00 156.00 C 232.48 156.00 232.77 155.93 233.00 155.50 C 233.23 155.07 233.52 155.00 235.00 155.00 C 236.48 155.00 236.77 154.93 237.00 154.50 C 237.21 154.10 237.52 154.00 238.50 154.00 C 239.48 154.00 239.79 153.90 240.00 153.50 C 240.21 153.10 240.52 153.00 241.50 153.00 C 242.48 153.00 242.79 152.90 243.00 152.50 C 243.23 152.07 243.52 152.00 245.00 152.00 C 246.48 152.00 246.77 151.93 247.00 151.50 C 247.17 151.17 247.52 151.00 248.00 151.00 C 248.48 151.00 248.83 150.83 249.00 150.50 C 249.21 150.10 249.52 150.00 250.50 150.00 C 251.48 150.00 251.79 149.90 252.00 149.50 C 252.17 149.17 252.52 149.00 253.00 149.00 C 253.48 149.00 253.83 148.83 254.00 148.50 C 254.21 148.10 254.52 148.00 255.50 148.00 C 256.48 148.00 256.79 147.90 257.00 147.50 C 257.17 147.17 257.52 147.00 258.00 147.00 C 258.48 147.00 258.83 146.83 259.00 146.50 C 259.17 146.17 259.52 146.00 260.00 146.00 C 260.48 146.00 260.83 145.83 261.00 145.50 C 261.17 145.17 261.52 145.00 262.00 145.00 C 262.48 145.00 262.83 144.83 263.00 144.50 C 263.17 144.17 263.52 144.00 264.00 144.00 C 264.48 144.00 264.83 143.83 265.00 143.50 C 265.17 143.19 265.53 143.00 265.95 143.00 C 266.42 143.00 266.89 142.70 267.50 142.00 C 268.08 141.34 268.59 141.00 269.00 141.00 C 269.41 141.00 269.92 140.66 270.50 140.00 C 271.04 139.38 271.59 139.00 271.95 139.00 C 272.36 139.00 273.29 138.23 275.00 136.50 C 276.58 134.90 277.66 134.00 277.99 134.00 C 278.69 134.00 281.00 131.69 281.00 130.99 C 281.00 130.65 281.74 129.74 283.00 128.50 C 284.47 127.07 285.00 126.37 285.00 125.91 C 285.00 125.52 285.20 125.16 285.50 125.00 C 285.81 124.83 286.00 124.47 286.00 124.05 C 286.00 123.58 286.30 123.11 287.00 122.50 C 287.70 121.89 288.00 121.42 288.00 120.95 C 288.00 120.53 288.19 120.17 288.50 120.00 C 288.83 119.83 289.00 119.48 289.00 119.00 C 289.00 118.52 289.17 118.17 289.50 118.00 C 289.83 117.83 290.00 117.48 290.00 117.00 C 290.00 116.52 290.17 116.17 290.50 116.00 C 290.90 115.79 291.00 115.48 291.00 114.50 C 291.00 113.52 291.10 113.21 291.50 113.00 C 291.90 112.79 292.00 112.48 292.00 111.50 C 292.00 110.52 292.10 110.21 292.50 110.00 C 292.93 109.77 293.00 109.48 293.00 108.00 C 293.00 106.52 293.07 106.23 293.50 106.00 C 293.94 105.76 294.00 105.48 294.00 103.50 C 294.00 101.52 294.06 101.24 294.50 101.00 C 294.97 100.75 295.00 100.48 295.00 96.00 C 295.00 91.52 294.97 91.25 294.50 91.00 C 294.06 90.76 294.00 90.48 294.00 88.50 C 294.00 86.52 293.94 86.24 293.50 86.00 C 293.08 85.77 293.00 85.48 293.00 84.05 C 293.00 82.41 292.97 82.36 292.00 81.50 C 291.39 80.97 291.00 80.40 291.00 80.06 C 291.00 79.27 285.73 74.00 284.94 74.00 C 284.60 74.00 284.03 73.61 283.50 73.00 C 282.89 72.30 282.42 72.00 281.95 72.00 C 281.53 72.00 281.17 71.81 281.00 71.50 C 280.83 71.17 280.48 71.00 280.00 71.00 C 279.52 71.00 279.17 70.83 279.00 70.50 C 278.79 70.10 278.48 70.00 277.50 70.00 C 276.52 70.00 276.21 69.90 276.00 69.50 C 275.77 69.07 275.48 69.00 274.00 69.00 C 272.52 69.00 272.23 68.93 272.00 68.50 C 271.76 68.06 271.48 68.00 269.50 68.00 C 267.52 68.00 267.24 67.94 267.00 67.50 C 266.76 67.05 266.48 67.00 264.09 67.00 C 261.67 67.00 261.42 66.96 260.98 66.44 L 260.50 65.88 L 260.02 66.44 C 259.42 67.14 258.36 67.18 258.00 66.50 C 257.74 66.02 257.47 66.00 251.55 65.99 L 245.38 65.99 L 244.66 65.26 C 244.27 64.86 244.02 64.41 244.11 64.27 C 244.22 64.10 245.64 64.00 248.01 64.00 C 251.48 64.00 251.75 63.97 252.00 63.50 C 252.26 63.02 252.52 63.00 258.00 63.00 C 263.48 63.00 263.74 62.98 264.00 62.50 C 264.24 62.06 264.52 62.00 266.50 62.00 C 268.48 62.00 268.76 61.94 269.00 61.50 C 269.23 61.07 269.52 61.00 271.00 61.00 C 272.48 61.00 272.77 60.93 273.00 60.50 C 273.17 60.17 273.52 60.00 274.00 60.00 C 274.48 60.00 274.83 59.83 275.00 59.50 C 275.17 59.17 275.52 59.00 276.00 59.00 C 276.48 59.00 276.83 58.83 277.00 58.50 C 277.21 58.10 277.52 58.00 278.50 58.00 C 279.48 58.00 279.79 57.90 280.00 57.50 C 280.17 57.19 280.53 57.00 280.95 57.00 C 281.42 57.00 281.89 56.70 282.50 56.00 C 283.03 55.39 283.60 55.00 283.94 55.00 C 284.78 55.00 290.00 49.73 290.00 48.89 C 290.00 48.52 290.21 48.16 290.50 48.00 C 290.81 47.83 291.00 47.47 291.00 47.05 C 291.00 46.58 291.30 46.11 292.00 45.50 C 292.89 44.71 293.00 44.51 293.00 43.45 C 293.00 42.52 293.11 42.21 293.50 42.00 C 293.90 41.79 294.00 41.48 294.00 40.50 C 294.00 39.52 294.10 39.21 294.50 39.00 C 294.93 38.77 295.00 38.48 295.00 37.00 C 295.00 35.52 295.07 35.23 295.50 35.00 C 295.94 34.76 296.00 34.48 296.00 32.50 C 296.00 30.52 296.06 30.24 296.50 30.00 C 296.95 29.76 297.00 29.48 297.00 27.00 C 297.00 24.53 297.05 24.24 297.50 24.00 C 297.97 23.75 298.00 23.43 298.06 15.93 L 298.12 8.12 L 299.00 8.12 L 299.88 8.12 L 299.94 11.93 C 300.01 15.43 300.05 15.76 300.51 16.00 C 300.97 16.25 301.00 16.54 301.00 20.50 C 301.00 24.48 301.03 24.75 301.50 25.00 C 301.95 25.24 302.00 25.52 302.00 28.00 C 302.00 30.48 302.05 30.76 302.50 31.00 C 302.95 31.24 303.00 31.52 303.00 34.00 C 303.00 36.48 303.05 36.76 303.50 37.00 C 303.90 37.21 304.00 37.52 304.00 38.50 C 304.00 39.48 304.10 39.79 304.50 40.00 C 304.90 40.21 305.00 40.52 305.00 41.50 C 305.00 42.48 305.10 42.79 305.50 43.00 C 305.83 43.17 306.00 43.52 306.00 44.00 C 306.00 44.48 306.17 44.83 306.50 45.00 C 306.81 45.17 307.00 45.53 307.00 45.95 C 307.00 46.42 307.30 46.89 308.00 47.50 C 308.61 48.03 309.00 48.60 309.00 48.94 C 309.00 49.73 314.27 55.00 315.06 55.00 C 315.40 55.00 315.97 55.39 316.50 56.00 C 317.11 56.70 317.58 57.00 318.05 57.00 C 318.47 57.00 318.83 57.19 319.00 57.50 C 319.17 57.83 319.52 58.00 320.00 58.00 C 320.48 58.00 320.83 58.17 321.00 58.50 C 321.17 58.83 321.52 59.00 322.00 59.00 C 322.48 59.00 322.83 59.17 323.00 59.50 C 323.21 59.90 323.52 60.00 324.50 60.00 C 325.48 60.00 325.79 60.10 326.00 60.50 C 326.24 60.94 326.52 61.00 328.50 61.00 C 330.48 61.00 330.76 61.06 331.00 61.50 C 331.24 61.95 331.52 62.00 334.00 62.00 C 336.48 62.00 336.76 62.05 337.00 62.50 C 337.26 62.99 337.52 63.00 347.41 63.00 L 357.54 63.00 L 358.27 63.69 C 359.25 64.61 359.20 65.00 358.13 65.00 C 357.52 65.00 357.19 65.15 357.00 65.50 C 356.74 65.98 356.48 66.00 351.00 66.00 C 345.52 66.00 345.26 66.02 345.00 66.50 C 344.75 66.98 344.48 67.00 339.50 67.00 C 334.52 67.00 334.25 67.02 334.00 67.50 C 333.76 67.95 333.48 68.00 331.00 68.00 C 328.52 68.00 328.24 68.05 328.00 68.50 C 327.76 68.94 327.48 69.00 325.50 69.00 C 323.52 69.00 323.24 69.06 323.00 69.50 C 322.83 69.83 322.48 70.00 322.00 70.00 C 321.52 70.00 321.17 70.17 321.00 70.50 C 320.83 70.83 320.48 71.00 320.00 71.00 C 319.52 71.00 319.17 71.17 319.00 71.50 C 318.84 71.79 318.48 72.00 318.11 72.00 C 317.22 72.00 312.00 77.22 312.00 78.11 C 312.00 78.48 311.79 78.84 311.50 79.00 C 311.17 79.17 311.00 79.52 311.00 80.00 C 311.00 80.48 310.83 80.83 310.50 81.00 C 310.17 81.17 310.00 81.52 310.00 82.00 C 310.00 82.48 309.83 82.83 309.50 83.00 C 309.07 83.23 309.00 83.52 309.00 85.00 C 309.00 86.48 308.93 86.77 308.50 87.00 C 308.06 87.24 308.00 87.52 308.00 89.50 C 308.00 91.48 307.94 91.76 307.50 92.00 C 307.03 92.25 307.00 92.52 307.00 97.00 C 307.00 101.48 306.97 101.75 306.50 102.00 C 306.06 102.24 306.00 102.52 306.00 104.50 C 306.00 106.48 305.94 106.76 305.50 107.00 C 305.07 107.23 305.00 107.52 305.00 109.00 C 305.00 110.48 304.93 110.77 304.50 111.00 C 304.10 111.21 304.00 111.52 304.00 112.50 C 304.00 113.48 303.90 113.79 303.50 114.00 C 303.10 114.21 303.00 114.52 303.00 115.50 C 303.00 116.48 302.90 116.79 302.50 117.00 C 302.10 117.21 302.00 117.52 302.00 118.50 C 302.00 119.48 301.90 119.79 301.50 120.00 C 301.17 120.17 301.00 120.52 301.00 121.00 C 301.00 121.48 300.83 121.83 300.50 122.00 C 300.17 122.17 300.00 122.52 300.00 123.00 C 300.00 123.48 299.83 123.83 299.50 124.00 C 299.17 124.17 299.00 124.52 299.00 125.00 C 299.00 125.48 298.83 125.83 298.50 126.00 C 298.19 126.17 298.00 126.53 298.00 126.95 C 298.00 127.42 297.70 127.89 297.00 128.50 C 296.30 129.11 296.00 129.58 296.00 130.05 C 296.00 130.47 295.81 130.83 295.50 131.00 C 295.20 131.16 295.00 131.52 295.00 131.91 C 295.00 132.37 294.57 132.97 293.50 134.00 C 292.59 134.87 292.00 135.65 292.00 135.98 C 292.00 136.74 279.71 149.00 278.94 149.00 C 278.60 149.00 278.03 149.40 277.50 150.00 C 276.92 150.66 276.41 151.00 276.00 151.00 C 275.59 151.00 275.08 151.34 274.50 152.00 C 273.89 152.70 273.42 153.00 272.95 153.00 C 272.53 153.00 272.17 153.19 272.00 153.50 C 271.83 153.81 271.47 154.00 271.05 154.00 C 270.58 154.00 270.11 154.30 269.50 155.00 C 268.89 155.70 268.42 156.00 267.95 156.00 C 267.53 156.00 267.17 156.19 267.00 156.50 C 266.83 156.83 266.48 157.00 266.00 157.00 C 265.52 157.00 265.17 157.17 265.00 157.50 C 264.83 157.83 264.48 158.00 264.00 158.00 C 263.52 158.00 263.17 158.17 263.00 158.50 C 262.83 158.83 262.48 159.00 262.00 159.00 C 261.52 159.00 261.17 159.17 261.00 159.50 C 260.83 159.83 260.48 160.00 260.00 160.00 C 259.52 160.00 259.17 160.17 259.00 160.50 C 258.83 160.83 258.48 161.00 258.00 161.00 C 257.52 161.00 257.17 161.17 257.00 161.50 C 256.83 161.83 256.48 162.00 256.00 162.00 C 255.52 162.00 255.17 162.17 255.00 162.50 C 254.79 162.90 254.48 163.00 253.50 163.00 C 252.52 163.00 252.21 163.10 252.00 163.50 C 251.79 163.90 251.48 164.00 250.50 164.00 C 249.52 164.00 249.21 164.10 249.00 164.50 C 248.83 164.83 248.48 165.00 248.00 165.00 C 247.52 165.00 247.17 165.17 247.00 165.50 C 246.79 165.90 246.48 166.00 245.50 166.00 C 244.52 166.00 244.21 166.10 244.00 166.50 C 243.79 166.90 243.48 167.00 242.50 167.00 C 241.52 167.00 241.21 167.10 241.00 167.50 C 240.77 167.93 240.48 168.00 239.00 168.00 C 237.52 168.00 237.23 168.07 237.00 168.50 C 236.79 168.90 236.48 169.00 235.50 169.00 C 234.52 169.00 234.21 169.10 234.00 169.50 C 233.79 169.90 233.48 170.00 232.50 170.00 C 231.52 170.00 231.21 170.10 231.00 170.50 C 230.76 170.94 230.48 171.00 228.50 171.00 C 226.52 171.00 226.24 171.06 226.00 171.50 C 225.79 171.90 225.48 172.00 224.50 172.00 C 223.52 172.00 223.21 172.10 223.00 172.50 C 222.77 172.93 222.48 173.00 221.00 173.00 C 219.52 173.00 219.23 173.07 219.00 173.50 C 218.79 173.90 218.48 174.00 217.50 174.00 C 216.52 174.00 216.21 174.10 216.00 174.50 C 215.77 174.93 215.48 175.00 214.00 175.00 C 212.52 175.00 212.23 175.07 212.00 175.50 C 211.79 175.90 211.48 176.00 210.50 176.00 C 209.52 176.00 209.21 176.10 209.00 176.50 C 208.77 176.93 208.48 177.00 207.00 177.00 C 205.52 177.00 205.23 177.07 205.00 177.50 C 204.77 177.93 204.48 178.00 203.00 178.00 C 201.52 178.00 201.23 178.07 201.00 178.50 C 200.79 178.90 200.48 179.00 199.50 179.00 C 198.52 179.00 198.21 179.10 198.00 179.50 C 197.77 179.93 197.48 180.00 196.00 180.00 C 194.52 180.00 194.23 180.07 194.00 180.50 C 193.79 180.90 193.48 181.00 192.50 181.00 C 191.52 181.00 191.21 181.10 191.00 181.50 C 190.79 181.90 190.48 182.00 189.50 182.00 C 188.52 182.00 188.21 182.10 188.00 182.50 C 187.79 182.90 187.48 183.00 186.50 183.00 C 185.52 183.00 185.21 183.10 185.00 183.50 C 184.83 183.83 184.48 184.00 184.00 184.00 C 183.52 184.00 183.17 184.17 183.00 184.50 C 182.83 184.83 182.48 185.00 182.00 185.00 C 181.52 185.00 181.17 185.17 181.00 185.50 C 180.79 185.90 180.48 186.00 179.50 186.00 C 178.52 186.00 178.21 186.10 178.00 186.50 C 177.83 186.83 177.48 187.00 177.00 187.00 C 176.52 187.00 176.17 187.17 176.00 187.50 C 175.83 187.83 175.48 188.00 175.00 188.00 C 174.52 188.00 174.17 188.17 174.00 188.50 C 173.83 188.83 173.48 189.00 173.00 189.00 C 172.52 189.00 172.17 189.17 172.00 189.50 C 171.79 189.90 171.48 190.00 170.50 190.00 C 169.52 190.00 169.21 190.10 169.00 190.50 C 168.83 190.81 168.47 191.00 168.05 191.00 C 167.58 191.00 167.11 191.30 166.50 192.00 C 165.89 192.70 165.42 193.00 164.95 193.00 C 164.53 193.00 164.17 193.19 164.00 193.50 C 163.83 193.83 163.48 194.00 163.00 194.00 C 162.52 194.00 162.17 194.17 162.00 194.50 C 161.83 194.81 161.47 195.00 161.05 195.00 C 160.58 195.00 160.11 195.30 159.50 196.00 C 158.92 196.66 158.41 197.00 158.00 197.00 C 157.59 197.00 157.08 197.34 156.50 198.00 C 155.92 198.66 155.41 199.00 155.00 199.00 C 154.59 199.00 154.08 199.34 153.50 200.00 C 152.95 200.63 152.41 201.00 152.04 201.00 C 151.64 201.00 150.96 201.50 150.00 202.50 C 149.10 203.44 148.35 204.00 148.01 204.00 C 147.65 204.00 146.78 204.70 145.52 205.98 C 144.13 207.40 143.38 207.98 142.85 208.04 C 142.26 208.11 142.11 208.26 142.04 208.85 C 141.94 209.79 140.79 210.94 139.85 211.04 C 139.26 211.11 139.11 211.26 139.04 211.85 C 138.98 212.38 138.40 213.13 136.98 214.52 C 135.53 215.94 135.00 216.63 135.00 217.09 C 135.00 217.48 134.80 217.84 134.50 218.00 C 134.17 218.17 134.00 218.52 134.00 219.00 C 134.00 219.48 133.83 219.83 133.50 220.00 C 133.17 220.17 133.00 220.52 133.00 221.00 C 133.00 221.48 132.83 221.83 132.50 222.00 C 132.07 222.23 132.00 222.52 132.00 224.00 C 132.00 225.48 131.93 225.77 131.50 226.00 C 131.03 226.25 131.00 226.52 131.00 230.00 C 131.00 233.48 131.03 233.75 131.50 234.00 C 131.90 234.21 132.00 234.52 132.00 235.50 C 132.00 236.48 132.10 236.79 132.50 237.00 C 132.83 237.17 133.00 237.52 133.00 238.00 C 133.00 238.48 133.17 238.83 133.50 239.00 C 133.80 239.16 134.00 239.52 134.00 239.89 C 134.00 240.72 137.23 244.00 138.05 244.00 C 138.40 244.00 138.96 244.39 139.50 245.00 C 140.08 245.66 140.59 246.00 141.00 246.00 C 141.41 246.00 141.92 246.34 142.50 247.00 C 143.29 247.89 143.49 248.00 144.55 248.00 C 145.48 248.00 145.79 248.11 146.00 248.50 C 146.23 248.93 146.52 249.00 148.00 249.00 C 149.48 249.00 149.77 249.07 150.00 249.50 C 150.17 249.83 150.52 250.00 151.00 250.00 C 151.48 250.00 151.83 250.17 152.00 250.50 C 152.25 250.97 152.52 251.00 156.00 251.00 C 159.48 251.00 159.75 251.03 160.00 251.50 C 160.26 251.99 160.52 252.00 169.00 252.00 C 177.48 252.00 177.74 251.99 178.00 251.50 C 178.36 250.82 179.42 250.86 180.02 251.56 L 180.50 252.12 L 180.98 251.56 C 181.45 251.01 181.55 251.00 187.09 251.00 C 192.48 251.00 192.74 250.98 193.00 250.50 C 193.25 250.03 193.52 250.00 197.00 250.00 C 200.48 250.00 200.75 249.97 201.00 249.50 C 201.25 249.04 201.52 249.00 204.50 249.00 C 207.48 249.00 207.75 248.96 208.00 248.50 C 208.24 248.05 208.52 248.00 211.00 248.00 C 213.50 248.00 213.76 247.96 214.01 247.49 C 214.24 247.05 214.48 246.99 215.58 247.05 L 216.88 247.12 L 216.88 248.50 L 216.88 249.88 L 215.56 249.95 C 214.57 250.01 214.19 250.14 213.99 250.51 C 213.83 250.83 213.47 251.00 213.00 251.00 C 212.52 251.00 212.17 251.17 212.00 251.50 C 211.83 251.83 211.48 252.00 211.00 252.00 C 210.52 252.00 210.17 252.17 210.00 252.50 C 209.79 252.90 209.48 253.00 208.50 253.00 C 207.52 253.00 207.21 253.10 207.00 253.50 C 206.83 253.83 206.48 254.00 206.00 254.00 C 205.52 254.00 205.17 254.17 205.00 254.50 C 204.79 254.90 204.48 255.00 203.50 255.00 C 202.52 255.00 202.21 255.10 202.00 255.50 C 201.79 255.90 201.48 256.00 200.50 256.00 C 199.52 256.00 199.21 256.10 199.00 256.50 C 198.84 256.80 198.48 257.00 198.09 257.00 C 197.74 257.00 197.24 257.25 196.98 257.56 L 196.51 258.12 L 196.00 257.50 L 195.49 256.88 L 195.02 257.44 C 194.66 257.87 194.28 258.00 193.41 258.00 C 192.52 258.00 192.21 258.11 192.00 258.50 C 191.79 258.90 191.48 259.00 190.50 259.00 C 189.52 259.00 189.21 259.10 189.00 259.50 C 188.76 259.94 188.48 260.00 186.50 260.00 C 184.52 260.00 184.24 260.06 184.00 260.50 C 183.76 260.94 183.48 261.00 181.50 261.00 C 179.52 261.00 179.24 261.06 179.00 261.50 C 178.76 261.94 178.48 262.00 176.50 262.00 C 174.52 262.00 174.24 262.06 174.00 262.50 C 173.77 262.93 173.48 263.00 172.00 263.00 C 170.52 263.00 170.23 263.07 170.00 263.50 C 169.76 263.94 169.48 264.00 167.50 264.00 C 165.52 264.00 165.24 264.06 165.00 264.50 C 164.75 264.98 164.48 265.00 159.50 265.00 C 154.52 265.00 154.25 265.02 154.00 265.50 C 153.74 265.99 153.48 266.00 142.50 266.00 C 131.52 266.00 131.26 265.99 131.00 265.50 Z" fill="url(#gold)" fill-rule="evenodd"/>
</svg>